<svg xmlns="http://www.w3.org/2000/svg" viewBox="0 0 600 140" width="600" height="140">
  <defs>
    <linearGradient id="bg" x1="0%" y1="0%" x2="100%" y2="100%">
      <stop offset="0%"   stop-color="#0D1B4B"/>
      <stop offset="55%"  stop-color="#1A3FA8"/>
      <stop offset="100%" stop-color="#2563EB"/>
    </linearGradient>
    <linearGradient id="shine" x1="0%" y1="0%" x2="0%" y2="100%">
      <stop offset="0%"   stop-color="white" stop-opacity="0.07"/>
      <stop offset="100%" stop-color="white" stop-opacity="0"/>
    </linearGradient>
  </defs>

  <!-- Background -->
  <rect width="600" height="140" fill="url(#bg)"/>
  <rect width="600" height="140" fill="url(#shine)"/>

  <!-- Decorative circles -->
  <circle cx="520" cy="20"  r="80" fill="white" fill-opacity="0.04"/>
  <circle cx="560" cy="130" r="60" fill="white" fill-opacity="0.05"/>
  <circle cx="30"  cy="130" r="50" fill="white" fill-opacity="0.03"/>

  <!-- XUL logo (white) -->
  <g transform="translate(28, 48) scale(0.38)">
    <path fill-rule="evenodd" clip-rule="evenodd" d="M69.0559 2.79651L62.8476 12.0021L56.0725 22.0445L70.53 43.5242H54.3149L47.5397 32.5891L40.7078 43.5242H24.8046L39.2621 22.1561L25.4282 1.51331H36.2572C40.2259 1.51331 42.7205 3.15915 43.8545 5.11185L47.7948 11.5278L51.877 4.94447C53.0676 3.07546 55.5339 1.51331 59.3892 1.51331H69.9346L69.0559 2.79651ZM96.7235 7.59456V24.8062C96.7235 27.3726 96.0999 29.1858 94.8809 30.3016C93.6619 31.3896 92.0744 31.9475 90.1184 31.9475C88.1624 31.9475 86.6316 31.3617 85.3843 30.19C84.137 29.0184 83.5133 27.1215 83.5133 24.5272V1.51331H77.0216L68.9991 13.4526V24.6667C68.9991 28.1537 69.5094 31.1385 70.5016 33.6212C71.4938 36.1039 72.9112 38.1403 74.7254 39.7304C76.5681 41.3204 78.7509 42.492 81.3305 43.2452C83.9102 43.9705 86.8017 44.361 89.9483 44.361C93.095 44.361 96.0148 43.9984 98.6512 43.2452C101.288 42.492 103.499 41.3483 105.37 39.7304C107.212 38.1403 108.658 36.076 109.679 33.5375C110.699 31.0269 111.209 27.9584 111.209 24.3599V1.51331H105.001C99.4166 1.51331 96.7235 4.83289 96.7235 7.59456ZM151.605 31.529H131.79V1.51331H125.582C119.969 1.51331 117.276 4.83289 117.276 7.59456V43.5242H143.554L151.605 31.529ZM23.6424 22.1282C19.9288 22.1282 17.5193 23.5788 16.3003 25.3362L4.05396 43.5242H11.226L25.6268 22.1282H23.6708H23.6424ZM16.4985 11.4163H18.4546V11.4442L7.17205 28.2095H0L9.15641 14.6243C10.3754 12.8669 12.785 11.4163 16.4985 11.4163Z" fill="white"/>
  </g>

  <!-- Divider -->
  <line x1="86" y1="52" x2="86" y2="90" stroke="white" stroke-opacity="0.25" stroke-width="1"/>

  <!-- App Center text -->
  <text x="98" y="74" font-family="Arial, sans-serif" font-size="18" font-weight="700" fill="white" letter-spacing="-0.3">App Center</text>
  <text x="98" y="92" font-family="Arial, sans-serif" font-size="11" fill="white" fill-opacity="0.6" letter-spacing="0.3">Herramientas internas · xul.es</text>

  <!-- Pill badge -->
  <rect x="390" y="56" width="90" height="22" rx="11" fill="white" fill-opacity="0.12"/>
  <text x="435" y="71" font-family="Arial, sans-serif" font-size="10" font-weight="600" fill="white" fill-opacity="0.9" text-anchor="middle" letter-spacing="0.5">INTERNO</text>
</svg>
