<?xml version="1.0" encoding="UTF-8"?>
<svg id="Capa_1" xmlns="http://www.w3.org/2000/svg" xmlns:xlink="http://www.w3.org/1999/xlink" version="1.1" viewBox="0 0 171 171">
  <!-- Generator: Adobe Illustrator 30.5.1, SVG Export Plug-In . SVG Version: 2.1.4 Build 3)  -->
  <defs>
    <style>
      .st0 {
        fill: #fff;
      }

      .st1 {
        fill: url(#Degradado_sin_nombre_3);
      }
    </style>
    <linearGradient id="Degradado_sin_nombre_3" data-name="Degradado sin nombre 3" x1="1.18" y1="9.88" x2="270.3" y2="251.24" gradientUnits="userSpaceOnUse">
      <stop offset="0" stop-color="#fa0001"/>
      <stop offset="1" stop-color="#000"/>
    </linearGradient>
  </defs>
  <g id="_x30_sZ89b">
    <g>
      <path class="st1" d="M0,170.85V0h171v171H0v-.15ZM42.89,109.89l55.51-.05-6.57-11.49-1.99-3.1-11.44.11c-1.25.01-2.64-.08-3.28-.47l13.34-23.08,10.95-18.95c2.36-4.08-.79-9.28-5-10.19-5.92-1.29-8.48,4.54-8.44,4.55l-.88-.25c-1.11-1.77-2.5-3.53-4.73-4.19-1.19-.36-3.28-.37-4.4.1-3.31,1.39-5.62,4.78-4.77,8.11.49,1.95,1.65,3.56,2.55,5.13l2.63,4.57c.9,1.56.3,2.81-.59,4.3l-2.46,4.08-13.74,23.83c-.5.86-.98,1.72-1.66,2.41-5.03-.13-9.94-.26-14.97.13-.72.18-2.16.81-2.84,1.2-.79.46-1.82,1.84-2.15,2.58l-.99,2.2c-.23.52-.23,1.86,0,2.38l.97,2.27c.34.8,1.62,2.18,2.4,2.56l2.56,1.26ZM121.63,110c2.71-.33,5.03.21,7.14-.35,1.59-.43,3.34-1.7,4.08-2.95l1.28-2.13-.02-4.01-.99-1.6c-1.58-2.56-4.2-3.73-7.07-3.74l-13.05-.04-5.08-8.66-9.87-17.28c-.15-.26-.74-.66-1.02-.74-.23-.06-.65.31-.77.52l-4.06,7.17-2.4,4.08c-.49.84-1.06,1.95-.49,2.92l3.89,6.66,12.84,22.33,6.58,11.31c2.54,4.37,4.41,5.73,9.8,4.65,3.66-1.7,5.36-5.54,3.92-9.3-1.17-3.06-3.19-5.78-4.71-8.84ZM57.45,125.47l3.8-6.56,1.28-2.04c.18-.29.38-.69.46-.92s-.75-.46-.94-.44h-15.42c-.69,1.2-1.54,2.45-1.97,3.8-.39,1.21-.3,3.32.07,4.43,1.31,3.83,4.66,5.34,8.68,4.57,1.41-.27,3.32-1.61,4.02-2.83Z"/>
      <path class="st0" d="M42.89,109.89l-2.56-1.26c-.78-.38-2.06-1.77-2.4-2.56l-.97-2.27c-.22-.53-.23-1.87,0-2.38l.99-2.2c.34-.75,1.36-2.13,2.15-2.58.69-.39,2.12-1.02,2.84-1.2,5.03-.39,9.94-.26,14.97-.13.68-.69,1.16-1.55,1.66-2.41l13.74-23.83,2.46-4.08c.89-1.48,1.49-2.74.59-4.3l-2.63-4.57c-.9-1.57-2.05-3.18-2.55-5.13-.85-3.33,1.46-6.72,4.77-8.11,1.12-.47,3.21-.46,4.4-.1,2.22.67,3.61,2.42,4.73,4.19l.88.25s2.53-5.84,8.44-4.55c4.21.91,7.36,6.11,5,10.19l-10.95,18.95-13.34,23.08c.63.4,2.03.49,3.28.47l11.44-.11,1.99,3.1,6.57,11.49-55.51.05Z"/>
      <path class="st0" d="M121.63,110c1.52,3.06,3.54,5.78,4.71,8.84,1.44,3.76-.26,7.6-3.92,9.3-5.39,1.08-7.26-.28-9.8-4.65l-6.58-11.31-12.84-22.33-3.89-6.66c-.57-.98,0-2.09.49-2.92l2.4-4.08,4.06-7.17c.12-.21.54-.58.77-.52.28.07.87.48,1.02.74l9.87,17.28,5.08,8.66,13.05.04c2.87,0,5.49,1.19,7.07,3.74l.99,1.6.02,4.01-1.28,2.13c-.75,1.25-2.49,2.52-4.08,2.95-2.11.56-4.43.03-7.14.35Z"/>
      <path class="st0" d="M57.45,125.47c-.7,1.21-2.61,2.56-4.02,2.83-4.02.77-7.38-.74-8.68-4.57-.38-1.11-.46-3.22-.07-4.43.43-1.35,1.27-2.6,1.97-3.8h15.42c.19-.02,1.01.22.94.45s-.28.63-.46.92l-1.28,2.04-3.8,6.56Z"/>
    </g>
  </g>
</svg>